<svg width="51" height="51" viewBox="0 0 51 51" fill="none" xmlns="http://www.w3.org/2000/svg">
<path d="M25.5 0C11.4156 0 0 11.4156 0 25.5C0 39.5844 11.4156 51 25.5 51C39.5844 51 51 39.5844 51 25.5C51 11.4156 39.5844 0 25.5 0ZM38.9938 24.7823L34.3065 28.7968L35.7419 34.7999C36.4296 37.6856 33.2898 39.9657 30.763 38.4182L25.5 35.1961L20.237 38.4182C17.7102 39.9657 14.5704 37.6856 15.2581 34.7999L16.6935 28.7968L12.0062 24.7823C9.75594 22.8536 10.9521 19.168 13.905 18.9288L20.0576 18.4354L22.4274 12.7388C23.5638 10.0026 27.4437 10.0026 28.58 12.7388L30.9499 18.4354L37.1025 18.9288C40.0479 19.168 41.2515 22.8536 38.9938 24.7823Z" fill="#F2C94C"/>
</svg>
